<svg xmlns="http://www.w3.org/2000/svg" viewBox="0 0 1100 1100" width="1100" height="1100">
<defs>
<linearGradient id="bg" x1="0.15" y1="0" x2="0.8" y2="1"><stop offset="0.10" stop-color="#1ABBFD"/><stop offset="0.28" stop-color="#1AA6FD"/><stop offset="0.46" stop-color="#178FFC"/><stop offset="0.64" stop-color="#1274FA"/><stop offset="0.82" stop-color="#0F64FA"/><stop offset="0.95" stop-color="#0F5CFC"/></linearGradient>
<clipPath id="rc"><rect x="5" y="5" width="1090" height="1090" rx="225" ry="225"/></clipPath>
</defs>
<g transform="translate(110 110) scale(0.80)"><g clip-path="url(#rc)">
<rect x="0" y="0" width="1100" height="1100" fill="url(#bg)"/>
<path d="M0 0 C23.654223 21.999869 39.347186 55.157211 40.807129 87.489746 C41.76688 124.32234 27.617484 157.736568 2.521973 184.415527 C-13.696307 201.084315 -35.086134 212.855724 -56.728027 220.853027 C-57.553269 221.158857 -58.378511 221.464688 -59.22876 221.779785 C-72.569039 226.457495 -86.215989 228.857003 -100.202179 230.509918 C-155.669858 237.166213 -202.45933 261.587926 -237.478027 305.540527 C-243.489133 313.39652 -248.532067 321.863253 -253.478027 330.415527 C-253.879087 331.100986 -254.280146 331.786445 -254.693359 332.492676 C-277.747139 372.292612 -287.988195 425.283587 -276.74707 470.345703 C-275.708541 474.193998 -274.64453 478.028079 -273.459961 481.834229 C-270.811174 490.604268 -270.306081 498.371617 -274.091309 506.845215 C-287.313962 531.353682 -313.31942 545.970169 -339.11084 553.911621 C-377.010861 564.911062 -415.345147 561.706743 -450.247559 542.981445 C-487.807304 522.176126 -506.743575 482.995855 -518.478027 443.415527 C-526.88886 414.070178 -530.915887 383.974023 -530.790527 353.478027 C-530.788705 352.547314 -530.786882 351.616601 -530.785004 350.657684 C-530.472519 255.215504 -491.917765 163.108167 -422.813965 79.997559 C-421.526591 78.574558 -420.245919 77.145021 -418.996338 75.688721 C-414.096231 69.983745 -408.868805 64.657321 -403.540527 59.353027 C-403.112881 58.923447 -403.112881 58.923447 -400.94873 56.749512 C-395.953717 51.762118 -390.847894 46.994852 -385.478027 42.415527 C-384.336525 41.419135 -383.19587 40.421772 -382.056152 39.42334 C-374.759768 33.083734 -367.321626 27.075073 -359.478027 21.415527 C-358.871846 20.972734 -358.265664 20.529941 -357.641113 20.07373 C-305.373487 -18.04843 -246.271819 -41.279856 -182.478027 -50.584473 C-181.58229 -50.718696 -180.686553 -50.85292 -179.763672 -50.991211 C-115.933303 -60.198635 -48.149394 -43.742453 0 0 Z " fill="#EAF4FC" transform="translate(758.47802734375,198.58447265625)"/>
<path d="M0 0 C3.31215 2.308468 5.6834 4.787049 8.0625 8 C21.550026 25.693314 39.996759 38.690201 60.6875 46.625 C64.362974 48.107046 65.92178 48.916323 68.6875 51.875 C71.229023 57.926246 71.12388 63.712004 70.3125 70.125 C70.21856 70.869272 70.124619 71.613545 70.027832 72.380371 C66.530324 97.812331 50.463932 121.585552 30.175781 136.976562 C4.669841 155.494574 -27.382892 165.754888 -59 161 C-84.832334 156.396425 -107.441531 146.157591 -128 130 C-129.009336 129.21625 -130.018672 128.4325 -131.058594 127.625 C-146.282492 115.271668 -161.266305 100.722781 -172.716309 84.775391 C-174.143215 82.801928 -175.611068 80.862698 -177.082031 78.921875 C-187.726038 64.724564 -196.819672 49.55455 -204.875 33.75 C-205.215071 33.08855 -205.555142 32.4271 -205.905518 31.745605 C-206.67014 30.19477 -207.345311 28.60035 -208 27 C-207.67 26.34 -207.34 25.68 -207 25 C-203.05531 26.230559 -199.515691 27.679676 -195.875 29.625 C-155.020046 50.177799 -108.213771 54.453544 -64.625 40.25 C-40.120737 31.829298 -17.814043 19.056883 0 0 Z " fill="#B7D8FC" transform="translate(492,730)"/>
<path d="M0 0 C15.584605 11.300177 21.888743 32.537738 25.027344 50.671875 C25.298177 53.001785 25.442425 55.280875 25.5 57.625 C25.538672 58.442266 25.577344 59.259531 25.617188 60.101562 C26.167531 80.831168 20.53731 99.69379 10.5 117.625 C9.944414 118.622734 9.388828 119.620469 8.816406 120.648438 C4.314293 128.184349 -1.368123 134.403606 -7.5 140.625 C-8.14582 141.283711 -8.791641 141.942422 -9.457031 142.621094 C-31.523136 163.437267 -64.256469 169.36514 -93.476562 168.808594 C-128.946874 167.710801 -164.635575 157.357832 -195.6875 140.3125 C-196.41147 139.916436 -197.135439 139.520371 -197.881348 139.112305 C-202.062623 136.724437 -205.254394 134.185714 -208.5 130.625 C-207.004044 129.129044 -205.561563 129.292064 -203.476562 129.046875 C-175.11539 125.49262 -148.220262 117.537099 -125.5 99.625 C-124.562852 98.891523 -123.625703 98.158047 -122.660156 97.402344 C-98.364976 77.972865 -81.050811 51.379204 -75.921875 20.449219 C-75.264527 14.490484 -75.247223 8.616757 -75.5 2.625 C-72.033724 1.795306 -69.275852 1.607732 -65.75 2.0625 C-49.380693 3.703808 -33.117043 2.618549 -17.3125 -2.125 C-10.590206 -4.061932 -6.056913 -3.56593 0 0 Z " fill="#B1D4FC" transform="translate(656.5,783.375)"/>
<path d="M0 0 C22.094701 15.152681 36.332028 38.35497 42.04834 64.343018 C46.987601 91.75249 40.296751 116.762182 25.185059 139.741455 C-1.613767 177.39103 -46.518582 195.162546 -90.657959 202.601807 C-96.118061 203.460293 -101.300905 203.888041 -106.82666 203.718018 C-106.82666 200.718018 -106.82666 200.718018 -105.174316 199.061768 C-104.420215 198.45333 -103.666113 197.844893 -102.88916 197.218018 C-97.472468 192.575138 -93.156549 187.368482 -88.82666 181.718018 C-88.242715 180.972939 -87.65877 180.227861 -87.057129 179.460205 C-71.925321 159.119086 -63.094203 133.992058 -61.82666 108.718018 C-61.773809 107.931689 -61.720957 107.145361 -61.666504 106.335205 C-60.667912 78.635128 -70.397501 51.255444 -88.82666 30.718018 C-89.428652 30.20626 -90.030645 29.694502 -90.650879 29.167236 C-91.82666 27.718018 -91.82666 27.718018 -91.861816 25.768799 C-90.331059 22.736167 -88.137103 21.670993 -85.26416 19.905518 C-75.714779 13.745716 -69.183147 6.996739 -62.342285 -1.977295 C-62.127938 -2.257706 -62.127938 -2.257706 -61.043213 -3.676758 C-59.93349 -5.141022 -58.841957 -6.619027 -57.752441 -8.098389 C-44.631228 -22.976195 -13.027041 -8.543474 0 0 Z " fill="#CBE4FC" transform="translate(761.82666015625,744.281982421875)"/>
<path d="M0 0 C19.490322 16.942035 29.231623 40.233933 31.1875 65.6875 C33.822734 108.651222 11.994969 152.099559 -15.8125 183.6875 C-19.678208 187.824989 -23.713971 191.782095 -27.8125 195.6875 C-28.4725 195.0275 -29.1325 194.3675 -29.8125 193.6875 C-29.570312 191.238281 -29.570312 191.238281 -28.9375 188 C-23.786303 155.173745 -31.903422 122.628166 -50.75 95.425781 C-54.157095 90.902347 -57.892488 86.768608 -61.8125 82.6875 C-62.544688 81.90375 -63.276875 81.12 -64.03125 80.3125 C-80.891211 62.740147 -103.563768 53.281634 -127.595703 51.318604 C-129.340929 51.169186 -131.078664 50.936406 -132.8125 50.6875 C-133.8125 48.6875 -133.8125 48.6875 -133.289062 46.550781 C-133.008047 45.709023 -132.727031 44.867266 -132.4375 44 C-129.321637 34.637851 -129.781827 25.496404 -130.115234 15.759766 C-130.218944 9.341283 -130.139632 5.554545 -125.8125 0.6875 C-125.363906 0.093242 -124.915313 -0.501016 -124.453125 -1.113281 C-115.102753 -11.277871 -100.871427 -16.824257 -87.8125 -20.3125 C-86.901133 -20.557422 -85.989766 -20.802344 -85.050781 -21.054688 C-55.522548 -27.348296 -23.093216 -19.255647 0 0 Z " fill="#E4F1FC" transform="translate(850.8125,663.3125)"/>
<path d="M0 0 C1.017554 -0.006365 2.035107 -0.012729 3.083496 -0.019287 C13.451381 0.154998 23.012253 2.401514 32.1875 7.25 C32.866353 7.600706 33.545205 7.951411 34.244629 8.312744 C65.05329 24.552713 81.398784 54.086258 91.5979 86.212402 C96.45092 102.059805 99.341797 117.897375 99.0625 134.5 C98.0725 134.5 97.0825 134.5 96.0625 134.5 C94.450072 132.836621 92.923054 131.090106 91.4375 129.3125 C72.389567 107.675969 43.849183 93.463448 15.0625 91.5 C-13.581581 90.128068 -41.254282 96.635205 -63.199219 115.882812 C-63.772852 116.416484 -64.346484 116.950156 -64.9375 117.5 C-67.624723 115.112233 -69.019068 112.635558 -70.625 109.4375 C-75.016148 101.248602 -80.093144 94.882488 -87.4375 89.1875 C-90.266817 86.693865 -91.724992 85.259692 -92.746094 81.609375 C-93.541427 62.039358 -81.908719 44.030292 -69.664062 29.871094 C-51.723572 10.827948 -25.952546 0.137203 0 0 Z " fill="#F1F7FD" transform="translate(781.9375,532.5)"/>
<path d="M0 0 C0.785039 0.582656 1.570078 1.165313 2.378906 1.765625 C4.260961 3.166528 6.134379 4.577333 8 6 C7.67 6.66 7.34 7.32 7 8 C5.108398 8.31543 5.108398 8.31543 2.609375 8.421875 C1.682861 8.474163 0.756348 8.52645 -0.198242 8.580322 C-1.205322 8.636316 -2.212402 8.69231 -3.25 8.75 C-35.006049 11.080062 -64.185192 25.608331 -85.504395 49.265137 C-96.043897 61.490684 -102.66006 75.569103 -107 91 C-107.97018 94.010903 -108.984411 97.004013 -110 100 C-116.314939 99.176312 -116.314939 99.176312 -118.988281 98.488281 C-125.936963 96.748025 -132.669475 96.907587 -139.780029 97.249756 C-145.789402 97.418483 -149.099744 96.552531 -154 93 C-164.520156 82.208939 -166.285477 65.668272 -166.319092 51.386963 C-166.015408 28.595028 -156.119054 6.813777 -139.832031 -9.121094 C-99.697565 -43.608499 -38.654091 -29.357537 0 0 Z " fill="#EFF7FD" transform="translate(783,507)"/>
<path d="M0 0 C0.165 0.33 0.165 0.33 1 2 C0.649375 2.424102 0.649375 2.424102 -1.125 4.570312 C-16.152272 23.02677 -27.953569 45.714084 -29 70 C-29.025781 70.436348 -29.025781 70.436348 -29.15625 72.644531 C-29.685785 89.126294 -25.210562 105.217233 -16.136719 118.976562 C-15 121 -15 121 -15 124 C-17.054688 125.507812 -17.054688 125.507812 -19.875 127.125 C-27.436491 131.747533 -34.238577 136.911727 -38.875 144.5625 C-40.70941 147.151343 -41.520232 147.884487 -44.644531 148.636719 C-58.154915 149.139673 -71.215671 142.211458 -80.992188 133.226562 C-92.552688 120.406552 -99.689654 103.0615 -99.25 85.722656 C-97.180605 63.185656 -85.827462 43.9344 -68.96875 29.308594 C-51.598503 15.293962 -23.041422 -1.031705 0 0 Z " fill="#EBF5FD" transform="translate(631,485)"/>
<path d="M0 0 C0.66 0.33 1.32 0.66 2 1 C2.663796 3.709497 3.227659 6.387933 3.75 9.125 C8.157874 30.325376 18.082458 48.771815 36.265625 61.253906 C43.831392 66.085189 50.999151 68.765921 59.731201 70.657227 C61.500678 71.049352 63.252726 71.518501 65 72 C66.516508 75.033017 65.596577 77.440818 65.0625 80.75 C64.03312 87.15806 63.671204 92.651309 65 99 C65.9473 103.633156 66.559328 106.811428 64.5 111.1875 C56.245811 120.473462 46.132941 125.297232 33.578125 126.167969 C19.734366 126.284108 7.234009 122.584837 -3 113 C-15.615449 100.022633 -19.52953 81.499439 -19.421875 63.953369 C-18.886596 45.21685 -14.11783 14.11783 0 0 Z " fill="#DEEEFC" transform="translate(515,574)"/>
<path d="M0 0 C0.447305 0.386719 0.894609 0.773438 1.355469 1.171875 C1.960039 1.692656 2.564609 2.213438 3.1875 2.75 C3.77918 3.260469 4.370859 3.770937 4.980469 4.296875 C5.313691 4.577891 5.313691 4.577891 7 6 C7.388008 6.337734 7.388008 6.337734 9.351562 8.046875 C13.063748 10.784475 17.050337 12.084956 21.355469 13.65625 C24 15 24 15 25.316406 16.886719 C28.075073 25.41494 26.482698 32.016843 22.75 40 C17.944503 49.232718 11.63513 54.866685 2 58.8125 C-10.116181 62.414045 -22.742797 60.212574 -34 55 C-48.838241 46.661998 -65.136312 31.797272 -70 15 C-66.141532 13.713844 -64.567589 14.587673 -60.75 15.875 C-56.128936 17.354148 -51.861428 18.639894 -47 19 C-46.620371 19.031582 -46.620371 19.031582 -44.699219 19.191406 C-29.712547 19.879683 -14.677182 14.68712 -3.59375 4.648438 C-2 3 -2 3 0 0 Z " fill="#CEE6FC" transform="translate(586,693)"/>
<path d="M0 0 C5.835727 5.576361 9.158001 12.919945 9.4375 21 C8.942354 31.19043 5.382613 38.957668 -2.039062 45.910156 C-14.413369 56.207503 -30.229054 58.350706 -45.855469 58.300781 C-48.804671 58.018684 -50.514684 57.547927 -53 56 C-50.14169 53.052368 -47.232913 50.36057 -44.0625 47.75 C-36.203579 40.897494 -31.013035 31.24107 -29 21 C-28.908253 19.189344 -28.869971 17.375472 -28.875 15.5625 C-28.872422 14.635664 -28.869844 13.708828 -28.867188 12.753906 C-28.996559 10.07134 -29.402172 7.614313 -30 5 C-29.191758 4.685469 -28.383516 4.370937 -27.550781 4.046875 C-26.482148 3.618906 -25.413516 3.190938 -24.3125 2.75 C-23.256758 2.332344 -22.201016 1.914688 -21.113281 1.484375 C-17.974914 -0.011961 -15.697416 -1.83491 -13 -4 C-7.959134 -6.176957 -4.129664 -2.856721 0 0 Z " fill="#D2E9FD" transform="translate(651,704)"/>
<path d="M0 0 C0.99 0.99 1.98 1.98 3 3 C2.29875 3.185625 1.5975 3.37125 0.875 3.5625 C-2.620449 5.310224 -4.30726 7.486958 -6.667969 10.539062 C-7.107539 11.021172 -7.547109 11.503281 -8 12 C-8.66 12 -9.32 12 -10 12 C-10 12.66 -10 13.32 -10 14 C-11.644331 15.036318 -13.316706 16.028249 -15 17 C-16.908605 18.441577 -18.803698 19.901158 -20.6875 21.375 C-25.214712 24.80656 -29.633773 27.568654 -34.777344 29.957031 C-37 31 -37 31 -40.375 33 C-44.448019 35.40104 -48.837127 37.033792 -53.230469 38.753906 C-56 40 -56 40 -58.125 41.625 C-60.692379 43.507744 -63.135751 43.384015 -66.234375 43.628906 C-69.474163 44.063624 -72.428748 44.944009 -75.5625 45.875 C-105.160882 54.266452 -136.184947 52.181227 -165.606689 44.597168 C-168.749451 43.813 -171.910292 43.128419 -175.079346 42.459473 C-177.498181 41.880822 -179.735787 41.022548 -182 40 C-182 39.34 -182 38.68 -182 38 C-182.94875 37.71125 -183.8975 37.4225 -184.875 37.125 C-188 36 -188 36 -190 34 C-186.983595 34 -185.612368 34.432339 -182.886719 35.574219 C-173.465488 39.406537 -164.191894 42.721284 -154.25 44.9375 C-153.358855 45.136257 -152.46771 45.335015 -151.549561 45.539795 C-110.320025 54.274176 -64.287241 46.229743 -28.75 23.625 C-18.278682 16.730127 -8.584413 9.183326 0 0 Z " fill="#EBF4FD" transform="translate(492,730)"/>
<path d="M0 0 C0.66 0.99 1.32 1.98 2 3 C1.457305 3.328711 0.914609 3.657422 0.355469 3.996094 C-5.436421 7.846918 -7.554663 11.224981 -9 18 C-16.849142 14.273862 -24.321688 10.662047 -31 5 C-30.67 4.34 -30.34 3.68 -30 3 C-28.038086 2.513428 -28.038086 2.513428 -25.484375 2.183594 C-24.562695 2.059199 -23.641016 1.934805 -22.691406 1.806641 C-21.720742 1.684824 -20.750078 1.563008 -19.75 1.4375 C-17.848807 1.187343 -15.94776 0.936076 -14.046875 0.683594 C-13.199639 0.575876 -12.352402 0.468159 -11.479492 0.357178 C-9.75106 0.108192 -8.030821 -0.202015 -6.321289 -0.55835 C-3.775286 -1.042754 -2.387858 -0.988079 0 0 Z " fill="#BEDDFD" transform="translate(479,910)"/>
<path d="M0 0 C5.423876 3.848594 8.902414 9.11589 12.5 14.625 C12.17 15.285 11.84 15.945 11.5 16.625 C11.335 16.13 11.335 16.13 10.5 13.625 C8.4375 12.9375 8.4375 12.9375 6.5 12.625 C6.5 11.965 6.5 11.305 6.5 10.625 C5.84 10.625 5.18 10.625 4.5 10.625 C4.5 8.975 4.5 7.325 4.5 5.625 C3.51 5.295 2.52 4.965 1.5 4.625 C1.5 3.965 1.5 3.305 1.5 2.625 C0.55125 2.315625 -0.3975 2.00625 -1.375 1.6875 C-4.5 0.625 -4.5 0.625 -6.5 -0.375 C-13.129074 -1.012411 -18.536751 0.633328 -24.839844 2.652344 C-34.576188 5.239697 -44.572654 4.744085 -54.5625 4.6875 C-56.111327 4.682475 -57.660155 4.677914 -59.208984 4.673828 C-62.972696 4.662901 -66.73633 4.645692 -70.5 4.625 C-72.357405 8.893389 -72.580414 11.961002 -72.5 16.625 C-72.792353 18.963821 -73.125992 21.29784 -73.5 23.625 C-73.62375 24.73875 -73.7475 25.8525 -73.875 27 C-75.544396 36.682495 -80.017678 44.991926 -84.5 53.625 C-85.5 51.625 -85.5 51.625 -85.018555 49.907715 C-84.73915 49.224028 -84.459746 48.540342 -84.171875 47.835938 C-84.019806 47.451595 -84.019806 47.451595 -83.250244 45.506592 C-82.920164 44.679417 -82.590083 43.852241 -82.25 43 C-77.129615 29.595259 -74.892427 17.026733 -75.5 2.625 C-72.033724 1.795306 -69.275852 1.607732 -65.75 2.0625 C-49.380693 3.703808 -33.117043 2.618549 -17.3125 -2.125 C-10.590206 -4.061932 -6.056913 -3.56593 0 0 Z " fill="#E5F2FD" transform="translate(656.5,783.375)"/>
<path d="M0 0 C2.70993 2.689781 5.389468 5.399814 8.023438 8.164062 C21.812163 22.495749 37.035515 33.472054 55.6875 40.625 C59.362974 42.107046 60.92178 42.916323 63.6875 45.875 C66.229486 51.927347 66.121703 57.711072 65.3125 64.125 C65.22146 64.864197 65.13042 65.603394 65.036621 66.36499 C63.702832 76.228012 60.789635 85.276022 56 94 C55.34 93.01 54.68 92.02 54 91 C54.66 91 55.32 91 56 91 C56.125039 90.281992 56.250078 89.563984 56.378906 88.824219 C56.999175 86.003749 57.885907 83.499022 58.9375 80.8125 C62.78485 70.347707 65.484351 58.62364 61 48 C61 47.01 61 46.02 61 45 C59.845 44.67 58.69 44.34 57.5 44 C43.964678 39.473993 31.081049 31.886425 20 23 C18.906875 22.29875 17.81375 21.5975 16.6875 20.875 C15.800625 20.25625 14.91375 19.6375 14 19 C14 18.34 14 17.68 14 17 C13.01 16.67 12.02 16.34 11 16 C11 15.34 11 14.68 11 14 C10.01 13.67 9.02 13.34 8 13 C7.38125 12.05125 6.7625 11.1025 6.125 10.125 C3.968872 6.954224 2.377823 5.688911 -1 4 C-0.67 2.68 -0.34 1.36 0 0 Z " fill="#F0F6FD" transform="translate(497,736)"/>
<path d="M0 0 C3.249769 2.650109 4.519328 6.072007 6 9.875 C6.261277 10.539753 6.522554 11.204507 6.791748 11.889404 C15.552276 34.86358 14.434324 58.903072 7 82 C6.67 82 6.34 82 6 82 C5.874674 76.48564 5.874674 76.48564 6.5 74.0625 C7 72 7 72 6.875 68.5625 C7 65 7 65 8.488281 62.925781 C10.74613 58.55594 10.40265 54.470473 10.3125 49.625 C10.301946 48.64636 10.291392 47.66772 10.280518 46.659424 C9.774941 18.774941 9.774941 18.774941 3 12 C2.389439 9.977867 1.85636 7.93172 1.375 5.875 C1.114609 4.779297 0.854219 3.683594 0.585938 2.554688 C0.392578 1.711641 0.199219 0.868594 0 0 Z " fill="#ECF5FD" transform="translate(669,800)"/>
<path d="M0 0 C6.163568 1.665829 11.482597 4.878053 17 8 C13.348119 9.071748 10.735672 8.764115 7 8 C6 11 6 11 6.890625 13.226562 C7.339219 14.018047 7.787812 14.809531 8.25 15.625 C8.688281 16.421641 9.126562 17.218281 9.578125 18.039062 C11 20 11 20 14 21 C16.6875 20.0625 16.6875 20.0625 19 19 C19 20.65 19 22.3 19 24 C18.21625 24.309375 17.4325 24.61875 16.625 24.9375 C14 26 14 26 12 27 C10.199987 23.796282 8.411515 20.586261 6.625 17.375 C6.117109 16.471367 5.609219 15.567734 5.085938 14.636719 C2.610308 10.17407 0.365616 5.952415 -1 1 C-0.67 0.67 -0.34 0.34 0 0 Z " fill="#E5F1FD" transform="translate(285,755)"/>
<path d="M0 0 C0.333223 0.09668 0.333223 0.09668 2.019531 0.585938 C8.632092 2.454101 15.22079 3.88543 22 5 C22 5.33 22 5.66 22 6 C21.336133 6.025781 20.672266 6.051563 19.988281 6.078125 C14.438994 6.434576 11.037714 6.836108 7 11 C6.34 11.66 5.68 12.32 5 13 C3.966795 11.403773 2.948776 9.797709 1.9375 8.1875 C1.369023 7.29418 0.800547 6.400859 0.214844 5.480469 C-1 3 -1 3 0 0 Z " fill="#E4F2FE" transform="translate(517,707)"/>
<path d="M0 0 C3 2 3 2 3.6875 5.125 C3.790625 6.07375 3.89375 7.0225 4 8 C4.99 8.33 5.98 8.66 7 9 C7.969877 10.906311 8.931955 12.817306 9.839844 14.753906 C11.401083 17.776507 13.36061 20.343007 15.453125 23.015625 C16.432984 24.272615 17.385113 25.55215 18.296875 26.859375 C23.063982 33.645493 29.07151 39.244185 35 45 C30.877524 45 29.866346 43.307333 27.01123 40.530029 C26.68969 40.205387 26.68969 40.205387 25.0625 38.5625 C24.398794 37.894524 23.735088 37.226548 23.05127 36.53833 C14.792033 27.999304 0 12.585084 0 0 Z " fill="#CBE5FD" transform="translate(258,684)"/>
<path d="M0 0 C4.167108 3.755453 7.201252 8.356613 10.253906 13.03125 C9.923906 13.69125 9.593906 14.35125 9.253906 15.03125 C9.088906 14.53625 9.088906 14.53625 8.253906 12.03125 C6.191406 11.34375 6.191406 11.34375 4.253906 11.03125 C4.253906 10.37125 4.253906 9.71125 4.253906 9.03125 C3.593906 9.03125 2.933906 9.03125 2.253906 9.03125 C2.253906 7.38125 2.253906 5.73125 2.253906 4.03125 C1.263906 3.70125 0.273906 3.37125 -0.746094 3.03125 C-0.746094 2.37125 -0.746094 1.71125 -0.746094 1.03125 C-1.694844 0.721875 -2.643594 0.4125 -3.621094 0.09375 C-6.746094 -0.96875 -6.746094 -0.96875 -8.746094 -1.96875 C-13.380202 -2.293951 -16.771203 -2.106719 -21.121094 -0.46875 C-26.033151 1.357198 -30.562697 1.323425 -35.746094 1.03125 C-35.746094 0.70125 -35.746094 0.37125 -35.746094 0.03125 C-32.41846 -0.846224 -29.083393 -1.691356 -25.746094 -2.53125 C-24.811523 -2.778105 -23.876953 -3.024961 -22.914062 -3.279297 C-14.060063 -5.477318 -7.648526 -5.427128 0 0 Z " fill="#F3F9FD" transform="translate(658.74609375,784.96875)"/>
<path d="M0 0 C8.412001 12.618001 5.7203 34.470862 3.625 48.6875 C3.498994 49.549077 3.372988 50.410654 3.243164 51.29834 C2.612291 55.26686 1.941365 58.442166 0 62 C1 51 1 51 1.251709 48.61792 C1.983278 41.380443 2.18325 34.209304 2.1875 26.9375 C2.199746 25.83084 2.211992 24.72418 2.224609 23.583984 C2.235302 17.549961 1.843456 11.998078 0.430908 6.123291 C0 4 0 4 0 0 Z " fill="#FAFCFE" transform="translate(877,706)"/>
<path d="M0 0 C12.437073 4.451398 24.155288 15.806882 31 27 C31 27.66 31 28.32 31 29 C30.01 28.67 29.02 28.34 28 28 C27.333333 26.666667 26.666667 25.333333 26 24 C25.154375 23.154375 24.30875 22.30875 23.4375 21.4375 C21 19 21 19 20 16 C18.687471 15.293254 17.350361 14.631464 16 14 C14.717864 12.954898 13.468923 11.868185 12.25 10.75 C8.803942 7.65373 5.228268 4.868024 1.46875 2.164062 C0.984063 1.779922 0.499375 1.395781 0 1 C0 0.67 0 0.34 0 0 Z " fill="#F0F6FE" transform="translate(756,742)"/>
<path d="M0 0 C0.99 0.33 1.98 0.66 3 1 C3.103125 2.155 3.20625 3.31 3.3125 4.5 C3.693301 7.652808 4.400587 10.358392 5.5625 13.3125 C7 17 7 17 7 20 C7.66 20 8.32 20 9 20 C9.121172 20.710273 9.242344 21.420547 9.367188 22.152344 C9.534766 23.071445 9.702344 23.990547 9.875 24.9375 C10.037422 25.854023 10.199844 26.770547 10.367188 27.714844 C10.576016 28.468945 10.784844 29.223047 11 30 C11.66 30.33 12.32 30.66 13 31 C13.625 33.5625 13.625 33.5625 14 36 C13.34 36 12.68 36 12 36 C-0.683873 6.325829 -0.683873 6.325829 0 0 Z " fill="#D2E8FD" transform="translate(243,646)"/>
<path d="M0 0 C0.33 0.66 0.66 1.32 1 2 C-7.022122 12.269059 -15.224791 19.735566 -26 27 C-25.67 28.65 -25.34 30.3 -25 32 C-26.32 31.01 -27.64 30.02 -29 29 C-28.847656 27.238281 -28.847656 27.238281 -28 25 C-25.558594 23.105469 -25.558594 23.105469 -22.4375 21.1875 C-13.177192 15.236793 -6.641665 8.779009 0 0 Z " fill="#E9F3FD" transform="translate(699,743)"/>
<path d="M0 0 C0.66 0.33 1.32 0.66 2 1 C1.321953 1.776016 0.643906 2.552031 -0.054688 3.351562 C-6.877238 11.242334 -13.070533 19.420923 -19 28 C-19.33 27.34 -19.66 26.68 -20 26 C-15.578294 15.671304 -7.823111 7.823111 0 0 Z " fill="#F8FAFE" transform="translate(560,516)"/>
<path d="M0 0 C1.155 0.391875 2.31 0.78375 3.5 1.1875 C24.806901 8.25614 24.806901 8.25614 33.277344 9.542969 C33.84582 9.693789 34.414297 9.844609 35 10 C35.165 10.33 35.165 10.33 36 12 C26.556441 11.550307 17.926152 8.942 9 6 C8.251377 5.759912 7.502754 5.519824 6.731445 5.272461 C4.786645 4.608023 2.887704 3.812588 1 3 C0.67 2.01 0.34 1.02 0 0 Z " fill="#A3CDFC" transform="translate(397,878)"/>
<path d="M0 0 C0.33 0 0.66 0 1 0 C1.441059 8.416877 1.091781 16.04356 -0.875 24.25 C-1.048701 24.976306 -1.222402 25.702612 -1.401367 26.450928 C-2.247123 29.756178 -3.090267 32.135401 -5 35 C-5.125326 29.48564 -5.125326 29.48564 -4.5 27.0625 C-4 25 -4 25 -4.125 21.5625 C-4 18 -4 18 -2.5 15.5625 C-0.665472 12.428515 -0.813345 10.479714 -0.960938 6.9375 C-1.009587 4.524491 -0.58369 2.33476 0 0 Z " fill="#D7EAFD" transform="translate(680,847)"/>
<path d="M0 0 C0.33 0 0.66 0 1 0 C4.778177 14.100696 4.348793 30.827429 1 45 C0.67 45 0.34 45 0 45 C-0.815126 39.007724 -1.26092 34.147146 0.515625 28.277344 C2.438555 19.236469 0.934705 9.113376 0 0 Z " fill="#EFF5FD" transform="translate(802,806)"/>
<path d="M0 0 C3.252095 1.084032 3.913857 1.799917 6 4.375 C11.192982 10.730994 11.192982 10.730994 15 12 C15.681265 13.325934 16.345959 14.660428 17 16 C18.804688 17.816406 18.804688 17.816406 20.875 19.5625 C21.214023 19.851895 21.214023 19.851895 22.929688 21.316406 C24.916518 22.932112 26.939371 24.47994 29 26 C22.301409 25.187693 18.638323 20.512337 14 16 C13.698762 15.708994 13.698762 15.708994 12.174316 14.236328 C10.232475 12.353746 8.301553 10.460718 6.375 8.5625 C6.060831 8.254938 6.060831 8.254938 4.470947 6.698486 C3.890144 6.11865 3.309341 5.538813 2.710938 4.941406 C2.188062 4.422639 1.665186 3.903872 1.126465 3.369385 C0 2 0 2 0 0 Z " fill="#ADD4FC" transform="translate(334,830)"/>
</g></g>
</svg>